<svg width="31" height="46" viewBox="0 0 31 46" fill="none" xmlns="http://www.w3.org/2000/svg">
<path d="M10.8728 20.4761H3C2.44772 20.4761 2 20.9238 2 21.4761V39.6631C2 40.2154 2.44772 40.6631 3 40.6631H10.7996C11.0355 40.6631 11.2639 40.7465 11.4443 40.8986L13.1748 42.3582L14.5642 43.53C14.9258 43.8349 15.4516 43.8448 15.8244 43.5537L17.3554 42.3582L19.2547 40.8749C19.4305 40.7376 19.6472 40.6631 19.8702 40.6631H27.3694C27.9217 40.6631 28.3694 40.2154 28.3694 39.6631V21.4761C28.3694 20.9238 27.9217 20.4761 27.3694 20.4761H19.0947C18.8544 20.4761 18.622 20.5627 18.4403 20.72L15.8689 22.9458C15.4805 23.282 14.9005 23.2692 14.5273 22.9161L13.6457 22.0822C13.5999 22.0389 13.5501 22 13.4969 21.966L11.4112 20.6334C11.2504 20.5307 11.0636 20.4761 10.8728 20.4761Z" stroke="url(#paint0_angular_2383_5987)" stroke-width="4"/>
<path d="M10.3393 7.39497L14.4593 3.05227C14.8536 2.63662 15.5159 2.63662 15.9102 3.05227L20.0302 7.39497C20.3282 7.70906 20.3902 8.17922 20.1839 8.55983L16.0639 16.1596C15.6855 16.8574 14.684 16.8574 14.3056 16.1596L10.1856 8.55983C9.97925 8.17922 10.0413 7.70906 10.3393 7.39497Z" stroke="url(#paint1_linear_2383_5987)" stroke-width="4"/>
<path d="M15.5409 23.1699L13.7504 31.0676C13.5885 31.7816 14.2235 32.4218 14.9388 32.2658L16.5235 31.9201C17.2327 31.7654 17.8652 32.394 17.715 33.1041L15.5409 43.3789" stroke="url(#paint2_linear_2383_5987)" stroke-width="4"/>
<defs>
<radialGradient id="paint0_angular_2383_5987" cx="0" cy="0" r="1" gradientUnits="userSpaceOnUse" gradientTransform="translate(15.1847 32.2647) rotate(90) scale(11.7886 13.1847)">
<stop offset="0.510417" stop-color="#3DC7F4"/>
<stop offset="0.651042" stop-color="#43A4F4"/>
<stop offset="0.9375" stop-color="#582FF4"/>
</radialGradient>
<linearGradient id="paint1_linear_2383_5987" x1="15.1847" y1="2.2876" x2="15.1847" y2="17.7812" gradientUnits="userSpaceOnUse">
<stop stop-color="#3DC7F4"/>
<stop offset="1" stop-color="#5533F6"/>
</linearGradient>
<linearGradient id="paint2_linear_2383_5987" x1="15.7191" y1="23.1699" x2="15.7191" y2="43.3789" gradientUnits="userSpaceOnUse">
<stop stop-color="#39CAF6"/>
<stop offset="1" stop-color="#582FF4"/>
</linearGradient>
</defs>
</svg>
